<?xml version="1.0" encoding="UTF-8"?>
<svg version="1.1" xmlns="http://www.w3.org/2000/svg" width="150" height="50">
<path d="M0 0 C49.5 0 99 0 150 0 C150 16.5 150 33 150 50 C100.5 50 51 50 0 50 C0 33.5 0 17 0 0 Z " fill="#EEEFF0" transform="translate(0,0)"/>
<path d="M0 0 C3.20251553 1.87791486 5.75626763 4.03565285 8 7 C8.64797339 10.12115428 8.51161622 12.86635065 8 16 C8.721875 15.896875 9.44375 15.79375 10.1875 15.6875 C13 16 13 16 15.8125 18.125 C18.33329645 21.43804676 18.47183746 22.94219787 18 27 C15.69 26.34 13.38 25.68 11 25 C11 22.36 11 19.72 11 17 C10.01 17.495 10.01 17.495 9 18 C8.59270772 20.32156597 8.25561323 22.6568787 8 25 C7.01 25.33 6.02 25.66 5 26 C2.43878207 24.60147629 0.31718166 22.79253676 -2 21 C0.475 24.465 0.475 24.465 3 28 C4.175625 27.7525 4.175625 27.7525 5.375 27.5 C8 27 8 27 10 27 C11.33783393 26.68521554 12.67203709 26.35412344 14 26 C14 26.66 14 27.32 14 28 C14.99 28.33 15.98 28.66 17 29 C18.39712274 30.95597184 19.73779907 32.95436401 21 35 C19.68 34.34 18.36 33.68 17 33 C16.505 33.99 16.505 33.99 16 35 C15.01 35 14.02 35 13 35 C12.67 34.01 12.34 33.02 12 32 C11.01 32.495 11.01 32.495 10 33 C9.67 33.99 9.34 34.98 9 36 C5.56404834 34.47291037 2.88087546 32.40072955 0 30 C-0.33 30.99 -0.66 31.98 -1 33 C-2.32 33 -3.64 33 -5 33 C-5.33 32.01 -5.66 31.02 -6 30 C-8.97 32.475 -8.97 32.475 -12 35 C-13.33333333 34.33333333 -14.66666667 33.66666667 -16 33 C-16.99 32.67 -17.98 32.34 -19 32 C-19 32.66 -19 33.32 -19 34 C-19.928125 34.144375 -20.85625 34.28875 -21.8125 34.4375 C-25.00725111 34.92100111 -25.00725111 34.92100111 -28 36 C-28 34 -28 34 -25.625 31.5625 C-24.75875 30.716875 -23.8925 29.87125 -23 29 C-22.34 28.01 -21.68 27.02 -21 26 C-21.99 26.33 -22.98 26.66 -24 27 C-24.47183746 22.94219787 -24.33329645 21.43804676 -21.8125 18.125 C-18.68503085 15.76202331 -17.74834188 15.78580904 -14 16 C-14.10441406 15.35933594 -14.20882812 14.71867187 -14.31640625 14.05859375 C-14.71090643 9.85685369 -14.91061594 7.12464961 -12.171875 3.7421875 C-5.32129587 -1.8607696 -5.32129587 -1.8607696 0 0 Z " fill="#79CFA0" transform="translate(118,8)"/>
<path d="M0 0 C0.66 0 1.32 0 2 0 C2.4717536 3.58401694 2.10371877 4.84750871 0.03125 7.89453125 C-0.8040625 8.85746094 -1.639375 9.82039062 -2.5 10.8125 C-3.75296875 12.27623047 -3.75296875 12.27623047 -5.03125 13.76953125 C-5.6809375 14.50558594 -6.330625 15.24164063 -7 16 C-4.69 16.33 -2.38 16.66 0 17 C0.103125 16.21625 0.20625 15.4325 0.3125 14.625 C1 12 1 12 4 10 C7.73209414 9.59286246 10.10268041 9.51682791 13.4375 11.3125 C15.94613556 15.62735316 15.30250762 20.12626606 15 25 C16.32 25 17.64 25 19 25 C19 20.05 19 15.1 19 10 C19.99 10.33 20.98 10.66 22 11 C22 15.62 22 20.24 22 25 C22.99 25 23.98 25 25 25 C25 20.05 25 15.1 25 10 C26.32 10.66 27.64 11.32 29 12 C29 16.29 29 20.58 29 25 C29.99 25 30.98 25 32 25 C32 20.05 32 15.1 32 10 C33.32 10.66 34.64 11.32 36 12 C36.08097324 14.27024968 36.13917704 16.54132075 36.1875 18.8125 C36.23970703 20.70935547 36.23970703 20.70935547 36.29296875 22.64453125 C36 26 36 26 34.80131531 27.68843079 C32.38609104 29.44699786 30.85931781 29.36217422 27.88598633 29.34057617 C26.84513382 29.34034958 25.80428131 29.34012299 24.73188782 29.33988953 C23.04895882 29.31666374 23.04895882 29.31666374 21.33203125 29.29296875 C20.18208176 29.28872391 19.03213226 29.28447906 17.84733582 29.28010559 C14.16882059 29.26329189 10.49085008 29.22563377 6.8125 29.1875 C4.32097144 29.17245669 1.82943432 29.15876767 -0.66210938 29.14648438 C-6.77492593 29.11337953 -12.88742405 29.06315305 -19 29 C-19.13019531 30.11503906 -19.26039062 31.23007812 -19.39453125 32.37890625 C-20 36 -20 36 -21.6875 37.9375 C-24.7864448 39.3613395 -26.62182812 39.55153827 -30 39 C-33.65820865 36.20792605 -34.87746488 34.7496714 -35.62890625 30.15234375 C-35.63285691 28.74722702 -35.61012571 27.34181493 -35.5625 25.9375 C-35.57345703 25.23044922 -35.58441406 24.52339844 -35.59570312 23.79492188 C-35.54490058 20.18794094 -35.27102582 18.33240979 -32.96484375 15.50390625 C-32.31644531 15.00761719 -31.66804688 14.51132812 -31 14 C-30.34 14.33 -29.68 14.66 -29 15 C-29.66 15.66 -30.32 16.32 -31 17 C-31.19852102 19.70922801 -31.27839477 22.29303179 -31.25 25 C-31.25773437 25.73734375 -31.26546875 26.4746875 -31.2734375 27.234375 C-31.41008865 31.58421903 -31.41008865 31.58421903 -29 35 C-25.69316534 34.71016731 -25.69316534 34.71016731 -23 33 C-22.91286169 31.29227642 -22.89299993 29.58101351 -22.90234375 27.87109375 C-22.90556641 26.83662109 -22.90878906 25.80214844 -22.91210938 24.73632812 C-22.92048828 23.64771484 -22.92886719 22.55910156 -22.9375 21.4375 C-22.94201172 20.34501953 -22.94652344 19.25253906 -22.95117188 18.12695312 C-22.96300174 15.41791505 -22.97948457 12.70898401 -23 10 C-21.68 10.66 -20.36 11.32 -19 12 C-18.67 16.29 -18.34 20.58 -18 25 C-8.43 25 1.14 25 11 25 C11 21.7 11 18.4 11 15 C9.0085944 14.61866701 7.00720923 14.28674418 5 14 C3.72443182 15.05224667 3.72443182 15.05224667 3.875 17.4375 C3.82693324 19.98978622 3.82693324 19.98978622 5 22 C-1.6 21.67 -8.2 21.34 -15 21 C-13.14895104 17.29790208 -11.2721213 14.76460898 -8.625 11.625 C-6.10382384 8.60201671 -3.6561801 5.64805879 -1.5625 2.3125 C-1.046875 1.549375 -0.53125 0.78625 0 0 Z " fill="#154E60" transform="translate(54,6)"/>
<path d="M0 0 C4.43982291 1.52790202 7.70301763 4.13452398 10.53125 7.87109375 C11.17922339 10.99224803 11.04286622 13.7374444 10.53125 16.87109375 C11.253125 16.76796875 11.975 16.66484375 12.71875 16.55859375 C15.53125 16.87109375 15.53125 16.87109375 18.34375 18.99609375 C20.86454645 22.30914051 21.00308746 23.81329162 20.53125 27.87109375 C18.22125 27.21109375 15.91125 26.55109375 13.53125 25.87109375 C13.53125 23.23109375 13.53125 20.59109375 13.53125 17.87109375 C12.87125 18.20109375 12.21125 18.53109375 11.53125 18.87109375 C11.12395772 21.19265972 10.78686323 23.52797245 10.53125 25.87109375 C7.53125 26.87109375 7.53125 26.87109375 5.5234375 26.32421875 C2.71654848 24.72916005 1.33652886 23.5992506 -0.46875 20.87109375 C-1.80596183 14.66361566 -1.56881161 8.1874829 -1.46875 1.87109375 C-4.43875 4.34609375 -4.43875 4.34609375 -7.46875 6.87109375 C-8.12875 6.54109375 -8.78875 6.21109375 -9.46875 5.87109375 C-8.42386819 4.83223431 -7.35696119 3.81549612 -6.28125 2.80859375 C-5.68957031 2.24011719 -5.09789063 1.67164063 -4.48828125 1.0859375 C-2.46875 -0.12890625 -2.46875 -0.12890625 0 0 Z " fill="#4FDA81" transform="translate(115.46875,7.12890625)"/>
<path d="M0 0 C1.32 0.66 2.64 1.32 4 2 C4.33 6.95 4.66 11.9 5 17 C15.23 17.33 25.46 17.66 36 18 C36 18.33 36 18.66 36 19 C25.44 19 14.88 19 4 19 C3.67 21.31 3.34 23.62 3 26 C0.77834456 28.55078958 -0.60829443 28.93332671 -3.9375 29.5 C-8.145308 28.81301094 -9.37909063 27.32418672 -12 24 C-12.47888066 21.0702022 -12.66089951 18.83895587 -12.5625 15.9375 C-12.57345703 15.23044922 -12.58441406 14.52339844 -12.59570312 13.79492188 C-12.54490058 10.18794094 -12.27102582 8.33240979 -9.96484375 5.50390625 C-9.31644531 5.00761719 -8.66804688 4.51132812 -8 4 C-7.34 4.33 -6.68 4.66 -6 5 C-6.66 5.66 -7.32 6.32 -8 7 C-8.19852102 9.70922801 -8.27839477 12.29303179 -8.25 15 C-8.25773437 15.73734375 -8.26546875 16.4746875 -8.2734375 17.234375 C-8.41008865 21.58421903 -8.41008865 21.58421903 -6 25 C-2.69316534 24.71016731 -2.69316534 24.71016731 0 23 C0.08713831 21.29227642 0.10700007 19.58101351 0.09765625 17.87109375 C0.09443359 16.83662109 0.09121094 15.80214844 0.08789062 14.73632812 C0.07951172 13.64771484 0.07113281 12.55910156 0.0625 11.4375 C0.05798828 10.34501953 0.05347656 9.25253906 0.04882812 8.12695312 C0.03699826 5.41791505 0.02051543 2.70898401 0 0 Z " fill="#104B5D" transform="translate(31,16)"/>
<path d="M0 0 C1.32 0.33 2.64 0.66 4 1 C4.22512171 5.12426536 4.42725588 9.24933849 4.625 13.375 C4.68945312 14.550625 4.75390625 15.72625 4.8203125 16.9375 C4.871875 18.05898438 4.9234375 19.18046875 4.9765625 20.3359375 C5.02893066 21.37282715 5.08129883 22.4097168 5.13525391 23.47802734 C5 26 5 26 3 28 C-0.29714793 27.67028521 -1.6226839 27.3773161 -4 25 C-4.28013291 22.34316055 -4.41618681 19.84691234 -4.4375 17.1875 C-4.47037109 16.47529297 -4.50324219 15.76308594 -4.53710938 15.02929688 C-4.57918357 10.89455131 -4.23974781 9.2707306 -1.4609375 6.1328125 C-0.64882813 5.42898437 0.16328125 4.72515625 1 4 C0.95502158 1.72476911 0.95502158 1.72476911 0 0 Z " fill="#DAE0E2" transform="translate(26,14)"/>
<path d="M0 0 C1.2890625 1.53125 1.2890625 1.53125 2.625 3.5 C3.07101563 4.1496875 3.51703125 4.799375 3.9765625 5.46875 C4.31429687 5.9740625 4.65203125 6.479375 5 7 C5.78375 6.835 6.5675 6.67 7.375 6.5 C10 6 10 6 12 6 C13.33783393 5.68521554 14.67203709 5.35412344 16 5 C16 5.66 16 6.32 16 7 C16.99 7.33 17.98 7.66 19 8 C20.39712274 9.95597184 21.73779907 11.95436401 23 14 C21.68 13.34 20.36 12.68 19 12 C18.67 12.66 18.34 13.32 18 14 C17.01 14 16.02 14 15 14 C14.67 13.01 14.34 12.02 14 11 C13.01 11.495 13.01 11.495 12 12 C11.67 12.99 11.34 13.98 11 15 C7.56404834 13.47291037 4.88087546 11.40072955 2 9 C1.67 9.99 1.34 10.98 1 12 C-0.32 12 -1.64 12 -3 12 C-5.32653061 4.65306122 -5.32653061 4.65306122 -3.75 1.5 C-2 0 -2 0 0 0 Z " fill="#69DE93" transform="translate(116,29)"/>
<path d="M0 0 C5.56818182 0.56818182 5.56818182 0.56818182 7 2 C7.09823937 3.66429051 7.12973631 5.33281931 7.125 7 C7.12886719 8.36125 7.12886719 8.36125 7.1328125 9.75 C7 12 7 12 6 13 C3.85441173 13.08775605 1.70595579 13.10695219 -0.44140625 13.09765625 C-1.74658203 13.09443359 -3.05175781 13.09121094 -4.39648438 13.08789062 C-5.7851569 13.07953401 -7.17382877 13.07106905 -8.5625 13.0625 C-9.95507656 13.05748666 -11.34765481 13.05292347 -12.74023438 13.04882812 C-16.1601987 13.03699434 -19.58007844 13.0205088 -23 13 C-23 12.34 -23 11.68 -23 11 C-16.4 11 -9.8 11 -3 11 C-3 10.34 -3 9.68 -3 9 C-2.34 8.67 -1.68 8.34 -1 8 C-1.33 7.67 -1.66 7.34 -2 7 C-2.1875 4.5625 -2.1875 4.5625 -2 2 C-1.34 1.34 -0.68 0.68 0 0 Z " fill="#E3E7E9" transform="translate(59,19)"/>
<path d="M0 0 C1.32 0.66 2.64 1.32 4 2 C4 6.29 4 10.58 4 15 C4.99 15 5.98 15 7 15 C7 10.05 7 5.1 7 0 C8.32 0.66 9.64 1.32 11 2 C11.08097324 4.27024968 11.13917704 6.54132075 11.1875 8.8125 C11.22230469 10.07707031 11.25710937 11.34164063 11.29296875 12.64453125 C11 16 11 16 9.70703125 17.95703125 C8 19 8 19 4.5 18.875 C1.18834025 18.04708506 -0.02528784 17.67166939 -2 15 C-1.34 15 -0.68 15 0 15 C0 10.05 0 5.1 0 0 Z " fill="#2A5D6D" transform="translate(79,16)"/>
<path d="M0 0 C0.16225719 2.75236274 0.2809328 5.49517476 0.375 8.25 C0.45041016 9.41595703 0.45041016 9.41595703 0.52734375 10.60546875 C0.58571174 12.88182055 0.55969289 14.7903908 0 17 C-4.55214724 21 -4.55214724 21 -8 21 C-8.16276553 18.43493576 -8.28113984 15.88024578 -8.375 13.3125 C-8.42527344 12.59126953 -8.47554688 11.87003906 -8.52734375 11.12695312 C-8.67190627 5.85042105 -8.67190627 5.85042105 -6.70800781 3.36474609 C-2.80324074 0 -2.80324074 0 0 0 Z " fill="#1C5264" transform="translate(114,11)"/>
<path d="M0 0 C0.33 6.93 0.66 13.86 1 21 C0.34 21 -0.32 21 -1 21 C-1 21.66 -1 22.32 -1 23 C-1.78375 23.0825 -2.5675 23.165 -3.375 23.25 C-6.14749104 23.72806339 -6.14749104 23.72806339 -7.3125 26.0625 C-7.539375 26.701875 -7.76625 27.34125 -8 28 C-8.66 28 -9.32 28 -10 28 C-10 27.34 -10 26.68 -10 26 C-10.66 26 -11.32 26 -12 26 C-12.33 26.66 -12.66 27.32 -13 28 C-14 27 -14 27 -14.09765625 24.71484375 C-14.08605469 23.79832031 -14.07445313 22.88179687 -14.0625 21.9375 C-14.05347656 21.01839844 -14.04445313 20.09929688 -14.03515625 19.15234375 C-14.02355469 18.44207031 -14.01195313 17.73179688 -14 17 C-13.01 17.33 -12.02 17.66 -11 18 C-11.03222656 17.28714844 -11.06445312 16.57429688 -11.09765625 15.83984375 C-11.00426107 8.12955276 -11.00426107 8.12955276 -7.96484375 4.7109375 C-1.84837963 0 -1.84837963 0 0 0 Z M-7.70800781 6.36474609 C-10.09670464 9.38808157 -9.63183054 12.62796957 -9.375 16.3125 C-9.34792969 17.05306641 -9.32085937 17.79363281 -9.29296875 18.55664062 C-9.22268284 20.37235998 -9.11507089 22.18656801 -9 24 C-6.0280615 22.87548273 -3.66559313 21.77706209 -1 20 C-0.7791436 17.04935852 -0.71939011 14.31631769 -0.8125 11.375 C-0.82603516 10.57320312 -0.83957031 9.77140625 -0.85351562 8.9453125 C-0.88890949 6.96325622 -0.94271766 4.98154449 -1 3 C-3.92399091 3 -5.56133364 4.51495239 -7.70800781 6.36474609 Z " fill="#E4EFE9" transform="translate(115,8)"/>
<path d="M0 0 C0.66 0.33 1.32 0.66 2 1 C1.67 1.66 1.34 2.32 1 3 C0.9175 3.78375 0.835 4.5675 0.75 5.375 C-0.24908798 8.87180794 -2.07172622 9.97273354 -5 12 C-7.9171221 10.54143895 -9.79807458 8.37576163 -12 6 C-12 5.34 -12 4.68 -12 4 C-10.02 3.67 -8.04 3.34 -6 3 C-6 3.66 -6 4.32 -6 5 C-4.02 3.35 -2.04 1.7 0 0 Z " fill="#7FDCA3" transform="translate(111,31)"/>
<path d="M0 0 C0.66 0 1.32 0 2 0 C2 2.64 2 5.28 2 8 C2.78375 7.938125 3.5675 7.87625 4.375 7.8125 C5.674375 7.9053125 5.674375 7.9053125 7 8 C7.99 9.485 7.99 9.485 9 11 C8.01 11.495 8.01 11.495 7 12 C6.01 11.34 5.02 10.68 4 10 C2.31050386 10.60648579 0.64363134 11.27840576 -1 12 C-5 12 -5 12 -7.6875 9.6875 C-10 7 -10 7 -11 4 C-8.94870759 5.02564621 -6.90202112 6.05187117 -4.875 7.125 C-3.04279198 8.14096182 -3.04279198 8.14096182 -1 8 C-1.020625 6.865625 -1.04125 5.73125 -1.0625 4.5625 C-1 1 -1 1 0 0 Z " fill="#D9ECE1" transform="translate(127,25)"/>
<path d="M0 0 C0.99 0.33 1.98 0.66 3 1 C3.03738281 1.98742187 3.07476562 2.97484375 3.11328125 3.9921875 C3.17902344 5.27351563 3.24476562 6.55484375 3.3125 7.875 C3.37050781 9.15117187 3.42851563 10.42734375 3.48828125 11.7421875 C3.65714844 12.81726563 3.82601562 13.89234375 4 15 C4.99 15.66 5.98 16.32 7 17 C7 17.66 7 18.32 7 19 C3.37 19 -0.26 19 -4 19 C-3.34 18.34 -2.68 17.68 -2 17 C-2.33 16.34 -2.66 15.68 -3 15 C-2.01 15 -1.02 15 0 15 C0 10.05 0 5.1 0 0 Z " fill="#0E4A5C" transform="translate(73,16)"/>
<path d="M0 0 C0 0.66 0 1.32 0 2 C-9.57 2 -19.14 2 -29 2 C-29 1.34 -29 0.68 -29 0 C-25.85483435 -0.2000026 -22.70887688 -0.38264359 -19.5625 -0.5625 C-18.68400391 -0.61857422 -17.80550781 -0.67464844 -16.90039062 -0.73242188 C-11.12033342 -1.05235124 -5.73680599 -0.78786247 0 0 Z " fill="#CDD6DA" transform="translate(65,30)"/>
<path d="M0 0 C2.6875 -0.4375 2.6875 -0.4375 6 0 C8.04775301 2.11124923 9.53480226 4.45859507 11 7 C9.68 6.34 8.36 5.68 7 5 C6.67 5.99 6.34 6.98 6 8 C4.68 8 3.36 8 2 8 C1.34 5.36 0.68 2.72 0 0 Z " fill="#86B0AB" transform="translate(111,33)"/>
<path d="M0 0 C3.72754611 -0.28673432 6.22815244 -0.41416211 9.5625 1.375 C11.88509633 5.61626286 10.2655834 9.51915066 9 14 C8.67 14 8.34 14 8 14 C7.67 11.03 7.34 8.06 7 5 C4.69 4.34 2.38 3.68 0 3 C0 2.01 0 1.02 0 0 Z " fill="#154E60" transform="translate(58,16)"/>
<path d="M0 0 C0 2.64 0 5.28 0 8 C-1.98 8.66 -3.96 9.32 -6 10 C-6.33663062 6.29706315 -6.47736015 4.60465619 -4.125 1.625 C-2 0 -2 0 0 0 Z " fill="#48D97C" transform="translate(100,25)"/>
<path d="M0 0 C0.66 0 1.32 0 2 0 C2.3077917 3.13837611 2.27813784 4.59343628 0.46875 7.23828125 C-0.1809375 7.92277344 -0.830625 8.60726563 -1.5 9.3125 C-2.1496875 10.00988281 -2.799375 10.70726562 -3.46875 11.42578125 C-3.9740625 11.94527344 -4.479375 12.46476562 -5 13 C-6 11 -6 11 -5.3125 8.75 C-3.80362907 5.58855614 -2.09125834 2.81012839 0 0 Z " fill="#164E60" transform="translate(54,6)"/>
<path d="M0 0 C1.875 0 1.875 0 4 1 C6.25 4.0625 6.25 4.0625 8 7 C6.68 6.34 5.36 5.68 4 5 C3.67 5.66 3.34 6.32 3 7 C2.01 7 1.02 7 0 7 C-0.66 5.35 -1.32 3.7 -2 2 C-1.34 1.34 -0.68 0.68 0 0 Z " fill="#8EAAB1" transform="translate(131,36)"/>
<path d="M0 0 C0.66 0 1.32 0 2 0 C5.83475261 4.24132879 9.25078379 8.98672339 12 14 C8.68817974 12.89605991 7.39455 11.26674177 5.5625 8.4375 C3.56817675 5.43675191 3.56817675 5.43675191 0.1875 4.0625 C-0.534375 4.041875 -1.25625 4.02125 -2 4 C-1.34 2.68 -0.68 1.36 0 0 Z " fill="#53D684" transform="translate(114,29)"/>
<path d="M0 0 C0.99 0 1.98 0 3 0 C3 0.66 3 1.32 3 2 C4.918125 1.938125 4.918125 1.938125 6.875 1.875 C9.0546875 1.8046875 9.0546875 1.8046875 11 2 C11.66 2.66 12.32 3.32 13 4 C8.05 4 3.1 4 -2 4 C-1.34 2.68 -0.68 1.36 0 0 Z " fill="#033E52" transform="translate(42,22)"/>
<path d="M0 0 C4 2 8 4 12 6 C11.34 6.66 10.68 7.32 10 8 C6 8 6 8 3.3125 5.6875 C1 3 1 3 0 0 Z " fill="#B3E8C7" transform="translate(116,29)"/>
<path d="M0 0 C0 0.66 0 1.32 0 2 C0.66 2.33 1.32 2.66 2 3 C1.01 4.32 0.02 5.64 -1 7 C-1.99 6.67 -2.98 6.34 -4 6 C-5.1875 3.4375 -5.1875 3.4375 -6 1 C-3.92446352 0.4465236 -2.15634036 0 0 0 Z " fill="#56DB86" transform="translate(105,34)"/>
<path d="M0 0 C0.99 0.99 1.98 1.98 3 3 C2.67 3.66 2.34 4.32 2 5 C0.01014051 5.38932033 -1.99199544 5.71887936 -4 6 C-4.99 6.33 -5.98 6.66 -7 7 C-7 6.34 -7 5.68 -7 5 C-5.03277992 3.61876037 -3.03131672 2.28511874 -1 1 C-0.67 0.67 -0.34 0.34 0 0 Z " fill="#AFC1C6" transform="translate(97,37)"/>
<path d="M0 0 C2.31 0 4.62 0 7 0 C7 0.99 7 1.98 7 3 C4.69 3 2.38 3 0 3 C0 2.01 0 1.02 0 0 Z " fill="#0B475A" transform="translate(58,16)"/>
<path d="M0 0 C-0.99 1.485 -0.99 1.485 -2 3 C-4.625 3.1875 -4.625 3.1875 -7 3 C-6.67 2.01 -6.34 1.02 -6 0 C-3 -1 -3 -1 0 0 Z " fill="#164E60" transform="translate(89,32)"/>
</svg>
